<svg xmlns="http://www.w3.org/2000/svg" xmlns:xlink="http://www.w3.org/1999/xlink" width="1080" zoomAndPan="magnify" viewBox="0 0 810 809.999993" height="1080" preserveAspectRatio="xMidYMid meet" version="1.0"><defs><g/><clipPath id="8057c65019"><path d="M 577.4375 388.148438 L 695.082031 388.148438 L 695.082031 517 L 577.4375 517 Z M 577.4375 388.148438 " clip-rule="nonzero"/></clipPath></defs><rect x="-81" width="972" fill="#ffffff" y="-80.999999" height="971.999992" fill-opacity="1"/><rect x="-81" width="972" fill="#ffffff" y="-80.999999" height="971.999992" fill-opacity="1"/><path fill="#cad5eb" d="M 228.273438 751.023438 C 228.273438 751.023438 229.9375 690.792969 250.921875 648.472656 L 388.933594 644.328125 L 521.136719 654.820312 C 528.941406 699.195312 532.960938 756.359375 532.960938 756.359375 C 524.03125 781.46875 272.460938 802.726562 228.273438 751.023438 " fill-opacity="1" fill-rule="nonzero"/><path fill="#f78fa0" d="M 299.058594 245.863281 C 323.234375 241.453125 444.878906 265.007812 444.878906 265.007812 C 444.878906 265.007812 511.355469 281.378906 525.734375 307.378906 C 548.835938 349.148438 558.753906 477.738281 558.753906 477.738281 L 502.710938 535.988281 C 502.710938 535.988281 523.582031 622.429688 525.734375 643.296875 C 527.878906 664.160156 443.75 695.359375 396.089844 697.324219 C 337.15625 699.753906 240.34375 657.257812 245.632812 637.703125 C 250.921875 618.148438 262.675781 582.621094 262.675781 582.621094 C 245.917969 585.171875 188.621094 599.164062 183.859375 551.339844 C 178.992188 502.441406 175.269531 335.695312 205.421875 286.429688 C 225.113281 254.257812 268.367188 251.464844 299.058594 245.863281 " fill-opacity="1" fill-rule="nonzero"/><path fill="#efefef" d="M 552.675781 435.390625 C 547.945312 435.339844 412.148438 529.753906 411.371094 533.503906 C 410.992188 535.324219 413.203125 539.875 413.203125 539.875 L 416.925781 547.894531 L 651.023438 469.128906 L 689.964844 394.164062 L 674.867188 390.371094 L 600.171875 438.523438 L 552.675781 435.390625 " fill-opacity="1" fill-rule="nonzero"/><path fill="#df8081" d="M 684.722656 392.855469 L 649.441406 464.617188 L 648.238281 465.484375 L 647.710938 464.214844 C 629.796875 461.472656 561.476562 442.28125 555.738281 444.363281 C 554.445312 444.835938 428.695312 533.1875 417.644531 541.785156 C 413.285156 545.164062 419.066406 550.726562 419.066406 550.726562 L 474.390625 555.484375 L 511.539062 557.800781 L 652.375 475.414062 C 656.972656 468.140625 693.070312 392.855469 693.070312 392.855469 C 693.070312 392.855469 688.214844 387.25 684.722656 392.855469 " fill-opacity="1" fill-rule="nonzero"/><path fill="#ffd6ba" d="M 585.949219 511.796875 L 579.835938 514.886719 C 579.835938 514.886719 557.101562 512.667969 555.808594 519.9375 C 555.203125 523.316406 556.402344 525.460938 561.601562 527.738281 L 556.820312 531.414062 C 549.007812 527.964844 538.464844 524.371094 531.480469 521.796875 C 519.667969 517.445312 513.347656 526.261719 523.179688 533.414062 C 530.671875 538.875 539.757812 544.644531 544.269531 547.449219 L 543.367188 548.3125 C 533.84375 546.019531 508.769531 540.007812 499.875 537.902344 C 488.613281 535.234375 482.5625 542.964844 489.605469 549.148438 C 488.359375 548.695312 487.304688 548.3125 486.511719 548.046875 C 477.757812 545.054688 468.945312 550.726562 478.59375 559.472656 C 483.777344 564.179688 518.980469 583.800781 529.191406 582.566406 C 539.394531 581.328125 537.015625 574.734375 537.015625 571.082031 C 537.015625 567.425781 542.28125 571.835938 546.878906 568.605469 C 554.140625 563.488281 551.734375 557.046875 552.675781 555.429688 C 554.925781 551.539062 557.265625 554.917969 562.621094 550.726562 C 566.878906 547.394531 566.878906 535.839844 566.582031 529.988281 C 571.457031 531.585938 577.34375 532.28125 582.949219 531.414062 C 596.996094 529.257812 598.472656 517.996094 585.949219 511.796875 " fill-opacity="1" fill-rule="nonzero"/><path fill="#000000" d="M 508.804688 465.589844 C 508.589844 465.589844 508.367188 465.546875 508.148438 465.46875 C 507.097656 465.113281 506.539062 463.96875 506.90625 462.921875 C 517.238281 432.894531 504.488281 396.363281 496.867188 374.546875 C 493.921875 366.085938 491.785156 359.976562 491.492188 356.140625 C 490.933594 348.917969 493.179688 333.953125 493.28125 333.320312 C 493.441406 332.222656 494.460938 331.457031 495.5625 331.636719 C 496.660156 331.800781 497.414062 332.828125 497.25 333.925781 C 497.222656 334.070312 494.976562 349.066406 495.5 355.832031 C 495.753906 359.148438 497.917969 365.355469 500.664062 373.222656 C 508.449219 395.535156 521.488281 432.882812 510.695312 464.230469 C 510.417969 465.0625 509.636719 465.589844 508.804688 465.589844 " fill-opacity="1" fill-rule="nonzero"/><path fill="#514741" d="M 390.550781 368.445312 C 395.925781 373.667969 520.972656 455.597656 520.972656 455.597656 L 528.445312 450.6875 C 528.445312 450.6875 402.789062 363.21875 396.40625 360.488281 C 388.726562 357.203125 384.832031 362.875 390.550781 368.445312 " fill-opacity="1" fill-rule="nonzero"/><path fill="#000000" d="M 392.210938 361.523438 C 391.128906 361.523438 390.386719 361.863281 390.058594 362.347656 C 389.515625 363.171875 389.871094 364.980469 391.953125 367.003906 C 396.203125 371.136719 484.957031 429.59375 520.308594 452.757812 L 524.1875 450.167969 C 474.023438 415.265625 400.085938 364.246094 395.617188 362.335938 C 394.265625 361.757812 393.121094 361.523438 392.210938 361.523438 Z M 520.3125 457.179688 C 519.933594 457.179688 519.550781 457.070312 519.21875 456.847656 C 514.128906 453.515625 394.601562 375.1875 389.152344 369.886719 C 385.855469 366.675781 384.902344 362.847656 386.722656 360.121094 C 388.144531 357.980469 391.742188 356.308594 397.191406 358.644531 C 403.585938 361.371094 516.085938 439.636719 528.894531 448.546875 C 529.445312 448.941406 529.761719 449.554688 529.761719 450.21875 C 529.753906 450.882812 529.414062 451.5 528.863281 451.875 L 521.433594 456.84375 C 521.097656 457.070312 520.710938 457.179688 520.3125 457.179688 " fill-opacity="1" fill-rule="nonzero"/><path fill="#efefef" d="M 369.527344 473.949219 L 319.054688 486.898438 C 319.054688 486.898438 312.589844 511.8125 314.796875 527.738281 C 317.003906 543.660156 323.980469 555.484375 323.980469 555.484375 C 323.980469 555.484375 368.203125 545.214844 373.132812 543.429688 C 379.613281 541.082031 378.355469 528.078125 378.355469 528.078125 L 375.152344 475.414062 L 369.527344 473.949219 " fill-opacity="1" fill-rule="nonzero"/><path fill="#ffd6ba" d="M 498.144531 433.113281 C 498.234375 430.605469 513.316406 427.796875 499.371094 406.457031 C 496.109375 401.453125 471.035156 381.648438 463.585938 381.113281 C 451.597656 380.253906 418.25 402.21875 413.820312 411.6875 C 410.367188 419.0625 404.871094 463.3125 399.171875 466.664062 C 393.46875 469.996094 367.695312 480.121094 367.695312 480.121094 L 365.675781 508.464844 L 369.527344 531.414062 C 369.527344 531.414062 413.820312 516.113281 426.824219 508.480469 C 442.019531 499.5625 440.578125 485.078125 441.890625 481.4375 C 444.582031 473.972656 449.996094 471.546875 455.226562 471.371094 C 455.226562 471.371094 455.605469 477.804688 470.347656 473.949219 C 475.734375 472.539062 483.199219 468.472656 481.394531 457.660156 C 481.285156 457.050781 490.679688 456.042969 490.679688 448.164062 C 490.679688 447.328125 497.59375 448.730469 498.144531 433.113281 " fill-opacity="1" fill-rule="nonzero"/><path fill="#c48b68" d="M 510.027344 154.683594 C 509.410156 143.664062 506.621094 134.957031 501.535156 124.34375 L 504.375 129.71875 C 505.449219 86.710938 477.222656 29.984375 426.679688 28.636719 L 411.359375 29.175781 C 387.25 22.945312 362.207031 25.277344 344.277344 38.492188 L 344.414062 37.507812 C 333.664062 29.984375 312.964844 27.832031 303.554688 40.734375 C 301.886719 43.023438 300.476562 45.980469 299.332031 49.355469 L 298.980469 45.578125 C 292.054688 49.953125 289.074219 58.765625 288.847656 68.570312 C 280 87.386719 287.277344 115.179688 304.898438 111.972656 L 303.804688 108.960938 C 304.164062 109.253906 304.527344 109.535156 304.898438 109.785156 L 306.042969 109.601562 C 304.0625 118.667969 303.03125 127.34375 303.191406 134.824219 C 303.613281 154.628906 314.34375 160.59375 327.746094 169.773438 L 357.375 191.082031 L 474.554688 167.820312 C 466.015625 198.695312 481.125 210.839844 481.125 210.839844 C 481.125 210.839844 482.109375 198.363281 492.292969 186.539062 C 502.476562 174.71875 511.011719 172.085938 510.027344 154.683594 " fill-opacity="1" fill-rule="nonzero"/><path fill="#ffd6ba" d="M 484.183594 131.160156 C 484.183594 131.160156 480.710938 160.558594 470.96875 176.738281 C 461.226562 192.925781 460.402344 213.417969 453.703125 222.578125 C 446.402344 232.550781 417.5 255.878906 420.046875 256.820312 C 422.582031 257.761719 430 262.121094 430 262.121094 C 435.320312 270.789062 418.03125 327.265625 376.101562 327.230469 C 322.773438 327.1875 299.058594 245.863281 299.058594 245.863281 C 324.714844 242.132812 326.441406 219.84375 327.273438 200.78125 C 328.109375 181.714844 329.441406 172.925781 324.65625 165.746094 C 314.578125 150.632812 322.734375 134.640625 329.820312 133.449219 C 336.914062 132.257812 351.097656 136.347656 354.714844 138.316406 C 354.714844 138.316406 350.753906 165.691406 356.285156 177.03125 C 356.285156 177.03125 361.863281 154.558594 373.230469 146.410156 C 382.554688 139.734375 427.777344 133.308594 439.316406 120.578125 C 439.316406 120.578125 437.851562 129.71875 425.066406 142.355469 C 418.976562 148.367188 461.550781 133.851562 461.773438 105.796875 C 461.8125 99.625 484.183594 131.160156 484.183594 131.160156 " fill-opacity="1" fill-rule="nonzero"/><path fill="#000000" d="M 401.78125 260.714844 C 385.476562 260.714844 360.683594 237.625 352.6875 223.722656 C 344.261719 209.066406 340.730469 197.105469 340.589844 196.609375 C 340.28125 195.539062 340.890625 194.425781 341.960938 194.117188 C 343.015625 193.804688 344.136719 194.414062 344.449219 195.480469 C 344.480469 195.601562 348 207.507812 356.171875 221.71875 C 364.175781 235.644531 391.03125 259.960938 404.515625 256.363281 C 420.171875 252.1875 437.96875 239.089844 452.128906 221.328125 C 458.230469 213.667969 460.335938 206.089844 463.519531 194.617188 C 465.003906 189.304688 466.675781 183.277344 469.066406 176.105469 C 470.636719 171.378906 472.203125 167.265625 473.71875 163.28125 C 478.550781 150.5625 482.042969 141.371094 479.425781 128.03125 C 479.203125 126.9375 479.910156 125.882812 481 125.671875 C 482.09375 125.464844 483.148438 126.164062 483.359375 127.253906 C 486.214844 141.722656 482.351562 151.867188 477.46875 164.707031 C 475.96875 168.652344 474.417969 172.730469 472.871094 177.375 C 470.519531 184.453125 468.859375 190.425781 467.394531 195.695312 C 464.195312 207.210938 461.882812 215.535156 455.273438 223.824219 C 440.597656 242.246094 422.007812 255.859375 405.554688 260.246094 C 404.363281 260.566406 403.097656 260.714844 401.78125 260.714844 " fill-opacity="1" fill-rule="nonzero"/><path fill="#000000" d="M 338.851562 178.421875 C 338.617188 178.421875 338.371094 178.382812 338.136719 178.292969 C 324.964844 173.207031 317.546875 162.484375 317.785156 148.882812 C 317.898438 142.160156 321.609375 135.71875 327.242188 132.488281 C 332.957031 129.199219 339.808594 129.464844 346.53125 133.222656 C 347.496094 133.765625 347.847656 134.992188 347.300781 135.957031 C 346.761719 136.925781 345.535156 137.269531 344.570312 136.730469 C 339.132812 133.6875 333.6875 133.421875 329.246094 135.96875 C 324.816406 138.519531 321.894531 143.613281 321.800781 148.953125 C 321.679688 155.898438 323.828125 168.460938 339.582031 174.539062 C 340.613281 174.941406 341.128906 176.105469 340.726562 177.136719 C 340.421875 177.9375 339.660156 178.421875 338.851562 178.421875 " fill-opacity="1" fill-rule="nonzero"/><path fill="#000000" d="M 339.648438 160.488281 C 338.800781 160.488281 338.003906 159.941406 337.730469 159.09375 C 337.300781 157.730469 335.542969 153.585938 333.300781 152.410156 C 332.316406 151.902344 331.9375 150.6875 332.453125 149.703125 C 332.964844 148.71875 334.179688 148.339844 335.164062 148.847656 C 339.28125 151 341.335938 157.171875 341.5625 157.871094 C 341.894531 158.925781 341.3125 160.054688 340.257812 160.390625 C 340.050781 160.457031 339.847656 160.488281 339.648438 160.488281 " fill-opacity="1" fill-rule="nonzero"/><path fill="#000000" d="M 455.605469 176.6875 C 456.925781 172.214844 455.285156 167.785156 451.933594 166.800781 C 448.578125 165.804688 444.796875 168.628906 443.472656 173.09375 C 442.152344 177.5625 443.792969 181.992188 447.144531 182.976562 C 450.503906 183.972656 454.289062 181.15625 455.605469 176.6875 " fill-opacity="1" fill-rule="evenodd"/><path fill="#000000" d="M 419.136719 207.789062 C 418.433594 207.789062 417.75 207.417969 417.382812 206.765625 C 416.84375 205.792969 417.1875 204.570312 418.152344 204.027344 L 418.824219 203.65625 C 423.503906 201.050781 426.597656 199.328125 424.21875 192.996094 C 419.625 180.742188 421.792969 170.128906 430.847656 160.546875 C 431.609375 159.738281 432.882812 159.699219 433.691406 160.464844 C 434.496094 161.226562 434.53125 162.496094 433.773438 163.304688 C 425.769531 171.78125 423.921875 180.765625 427.984375 191.585938 C 431.574219 201.160156 425.328125 204.636719 420.769531 207.167969 L 420.117188 207.535156 C 419.808594 207.707031 419.46875 207.789062 419.136719 207.789062 " fill-opacity="1" fill-rule="nonzero"/><path fill="#000000" d="M 403.679688 169.167969 C 405.003906 164.703125 403.355469 160.28125 400.003906 159.285156 C 396.652344 158.292969 392.863281 161.117188 391.542969 165.582031 C 390.21875 170.050781 391.863281 174.472656 395.21875 175.464844 C 398.570312 176.460938 402.359375 173.636719 403.679688 169.167969 " fill-opacity="1" fill-rule="evenodd"/><path fill="#000000" d="M 466.722656 157.695312 C 466.289062 157.695312 465.851562 157.558594 465.484375 157.261719 C 460.664062 153.449219 452.6875 151.054688 445.738281 154.332031 C 444.722656 154.808594 443.53125 154.375 443.0625 153.371094 C 442.589844 152.363281 443.023438 151.171875 444.019531 150.699219 C 453.125 146.410156 462.613281 149.863281 467.980469 154.113281 C 468.84375 154.800781 468.992188 156.0625 468.304688 156.933594 C 467.910156 157.433594 467.320312 157.695312 466.722656 157.695312 " fill-opacity="1" fill-rule="nonzero"/><path fill="#000000" d="M 416.742188 148.421875 C 416.363281 148.421875 415.972656 148.3125 415.628906 148.082031 C 407.992188 142.988281 396.984375 142.035156 388.234375 145.699219 C 387.207031 146.132812 386.035156 145.652344 385.605469 144.625 C 385.179688 143.605469 385.660156 142.425781 386.6875 142 C 396.617188 137.832031 409.148438 138.933594 417.863281 144.738281 C 418.78125 145.355469 419.03125 146.605469 418.414062 147.53125 C 418.03125 148.105469 417.394531 148.421875 416.742188 148.421875 " fill-opacity="1" fill-rule="nonzero"/><path fill="#000000" d="M 416.191406 227.101562 C 405.925781 227.101562 393.226562 222.128906 385.566406 212 C 384.894531 211.109375 385.066406 209.855469 385.949219 209.183594 C 386.839844 208.507812 388.097656 208.6875 388.765625 209.574219 C 396.960938 220.410156 412.101562 224.726562 421.425781 222.511719 C 422.511719 222.265625 423.589844 222.929688 423.839844 224.007812 C 424.101562 225.085938 423.429688 226.164062 422.351562 226.425781 C 420.460938 226.878906 418.378906 227.101562 416.191406 227.101562 " fill-opacity="1" fill-rule="nonzero"/><path fill="#000000" d="M 482.839844 179.039062 C 482.578125 179.039062 482.316406 178.992188 482.0625 178.886719 C 481.042969 178.457031 480.554688 177.289062 480.984375 176.265625 C 493.15625 146.96875 479.03125 124.769531 469.527344 114.148438 C 468.785156 113.320312 468.859375 112.050781 469.683594 111.308594 C 470.507812 110.574219 471.78125 110.640625 472.515625 111.464844 C 482.65625 122.792969 497.710938 146.476562 484.695312 177.800781 C 484.375 178.578125 483.621094 179.039062 482.839844 179.039062 " fill-opacity="1" fill-rule="nonzero"/><path fill="#000000" d="M 452.78125 88.480469 C 451.671875 88.480469 450.777344 87.585938 450.777344 86.476562 C 450.777344 64.757812 435.355469 49.296875 435.207031 49.140625 C 434.414062 48.363281 434.40625 47.097656 435.183594 46.300781 C 435.960938 45.511719 437.230469 45.5 438.019531 46.277344 C 438.707031 46.953125 454.796875 63.035156 454.796875 86.476562 C 454.796875 87.585938 453.898438 88.480469 452.78125 88.480469 " fill-opacity="1" fill-rule="nonzero"/><path fill="#000000" d="M 481.125 212.847656 C 480.675781 212.847656 480.238281 212.699219 479.867188 212.410156 C 479.210938 211.875 463.828125 199.0625 472.617188 167.28125 C 472.917969 166.207031 474.015625 165.582031 475.089844 165.882812 C 476.164062 166.179688 476.785156 167.28125 476.488281 168.355469 C 470.59375 189.671875 476.210938 201.480469 479.855469 206.449219 C 480.988281 201.601562 483.824219 193.292969 490.765625 185.230469 C 493.257812 182.34375 495.664062 179.96875 497.792969 177.878906 C 504.605469 171.175781 508.722656 167.132812 508.023438 154.796875 C 507.0625 137.796875 500.882812 126.53125 488.5625 104.082031 C 488.027344 103.105469 488.382812 101.882812 489.355469 101.355469 C 490.324219 100.820312 491.550781 101.171875 492.082031 102.144531 C 504.292969 124.402344 511.023438 136.65625 512.03125 154.570312 C 512.835938 168.722656 507.441406 174.03125 500.609375 180.742188 C 498.441406 182.882812 496.191406 185.085938 493.816406 187.851562 C 484.222656 198.992188 483.140625 210.886719 483.128906 211.003906 C 483.070312 211.746094 482.601562 212.390625 481.921875 212.6875 C 481.660156 212.796875 481.394531 212.847656 481.125 212.847656 " fill-opacity="1" fill-rule="nonzero"/><path fill="#000000" d="M 504.375 131.730469 C 504.359375 131.730469 504.347656 131.730469 504.328125 131.730469 C 503.21875 131.699219 502.339844 130.78125 502.371094 129.671875 C 503.355469 90.046875 476.957031 31.988281 426.621094 30.648438 C 425.519531 30.617188 424.640625 29.695312 424.671875 28.585938 C 424.699219 27.476562 425.660156 26.644531 426.734375 26.628906 C 450.226562 27.257812 471.472656 39.96875 486.558594 62.433594 C 499.542969 81.78125 506.960938 106.957031 506.378906 129.769531 C 506.355469 130.859375 505.464844 131.730469 504.375 131.730469 " fill-opacity="1" fill-rule="nonzero"/><path fill="#000000" d="M 327.746094 171.78125 C 327.355469 171.78125 326.957031 171.667969 326.613281 171.433594 L 324.117188 169.730469 C 312.03125 161.535156 301.597656 154.457031 301.1875 134.867188 C 300.636719 108.707031 314.832031 64.511719 336.078125 42.914062 C 353.402344 25.304688 381.730469 19.441406 411.855469 27.234375 C 412.9375 27.503906 413.578125 28.609375 413.304688 29.683594 C 413.023438 30.753906 411.933594 31.402344 410.855469 31.121094 C 382.132812 23.699219 355.253906 29.160156 338.949219 45.730469 C 318.984375 66.015625 304.667969 109.472656 305.203125 134.777344 C 305.570312 152.296875 314.296875 158.214844 326.371094 166.40625 L 328.886719 168.113281 C 329.796875 168.742188 330.035156 169.992188 329.40625 170.910156 C 329.015625 171.472656 328.386719 171.78125 327.746094 171.78125 " fill-opacity="1" fill-rule="nonzero"/><path fill="#000000" d="M 323.980469 138.449219 C 323.707031 138.449219 323.429688 138.394531 323.167969 138.277344 C 309.796875 132.335938 305.035156 117.601562 305.035156 105.796875 C 305.035156 104.6875 305.9375 103.785156 307.046875 103.785156 C 308.15625 103.785156 309.054688 104.6875 309.054688 105.796875 C 309.054688 116.335938 313.1875 129.449219 324.800781 134.605469 C 325.8125 135.054688 326.269531 136.242188 325.820312 137.257812 C 325.488281 138.003906 324.753906 138.449219 323.980469 138.449219 " fill-opacity="1" fill-rule="nonzero"/><path fill="#000000" d="M 308.933594 93.824219 C 308.28125 93.824219 307.644531 93.511719 307.261719 92.929688 C 296.753906 77.175781 291.546875 53.777344 301.929688 39.554688 C 312.167969 25.507812 334.246094 27.9375 345.566406 35.867188 C 346.476562 36.5 346.695312 37.75 346.0625 38.664062 C 345.421875 39.566406 344.175781 39.792969 343.265625 39.15625 C 333.527344 32.339844 313.847656 30.027344 305.179688 41.917969 C 295.980469 54.523438 301.105469 76.464844 310.605469 90.699219 C 311.214844 91.625 310.964844 92.875 310.039062 93.488281 C 309.703125 93.710938 309.316406 93.824219 308.933594 93.824219 " fill-opacity="1" fill-rule="nonzero"/><path fill="#000000" d="M 308.660156 99.203125 C 308.269531 99.203125 307.875 99.089844 307.53125 98.851562 C 297.75 92.210938 287.761719 76.742188 287.996094 62.347656 C 288.125 54.28125 291.550781 47.894531 297.910156 43.875 C 298.847656 43.285156 300.085938 43.5625 300.679688 44.5 C 301.277344 45.4375 301 46.675781 300.054688 47.273438 C 294.824219 50.582031 292.121094 55.667969 292.015625 62.410156 C 291.824219 73.894531 299.800781 88.753906 309.785156 95.53125 C 310.703125 96.148438 310.949219 97.398438 310.324219 98.320312 C 309.933594 98.894531 309.300781 99.203125 308.660156 99.203125 " fill-opacity="1" fill-rule="nonzero"/><path fill="#000000" d="M 302.195312 114.238281 C 297.148438 114.238281 292.621094 111.875 289.222656 107.390625 C 281.875 97.714844 281.003906 80.097656 287.222656 67.277344 C 287.710938 66.28125 288.917969 65.875 289.910156 66.355469 C 290.90625 66.835938 291.328125 68.039062 290.839844 69.035156 C 285.316406 80.417969 286.019531 96.527344 292.417969 104.960938 C 294.625 107.863281 298.527344 111.097656 304.539062 110 C 305.628906 109.792969 306.679688 110.527344 306.875 111.617188 C 307.074219 112.710938 306.347656 113.757812 305.253906 113.953125 C 304.21875 114.144531 303.191406 114.238281 302.195312 114.238281 " fill-opacity="1" fill-rule="nonzero"/><path fill="#000000" d="M 334.738281 118.015625 C 334.53125 118.015625 334.316406 117.984375 334.101562 117.914062 C 321.894531 113.839844 312.832031 99.378906 312.566406 83.519531 C 312.550781 82.40625 313.433594 81.492188 314.542969 81.472656 C 315.5625 81.414062 316.570312 82.339844 316.582031 83.449219 C 316.824219 97.660156 324.726562 110.558594 335.371094 114.101562 C 336.425781 114.453125 336.996094 115.589844 336.640625 116.644531 C 336.363281 117.488281 335.578125 118.015625 334.738281 118.015625 " fill-opacity="1" fill-rule="nonzero"/><path fill="#000000" d="M 425.066406 144.367188 C 424.214844 144.367188 423.449219 143.820312 423.171875 143.007812 C 422.875 142.160156 423.1875 141.210938 423.921875 140.699219 C 424.078125 140.59375 439.363281 129.785156 438.117188 111.847656 C 438.035156 110.742188 438.878906 109.78125 439.980469 109.703125 C 441.054688 109.613281 442.050781 110.460938 442.121094 111.570312 C 443.011719 124.324219 436.753906 133.679688 431.828125 138.980469 C 442.128906 135.875 460.34375 125.8125 460.765625 93.472656 C 460.78125 92.367188 461.707031 91.519531 462.796875 91.488281 C 463.914062 91.507812 464.796875 92.417969 464.785156 93.527344 C 464.15625 141.542969 425.570312 144.339844 425.1875 144.359375 C 425.144531 144.359375 425.101562 144.367188 425.066406 144.367188 " fill-opacity="1" fill-rule="nonzero"/><path fill="#000000" d="M 357.441406 181.386719 C 356.734375 181.386719 356.066406 181.007812 355.703125 180.375 C 355.460938 179.953125 331.921875 137.617188 379.148438 108.488281 C 380.097656 107.90625 381.335938 108.195312 381.917969 109.140625 C 382.5 110.089844 382.210938 111.320312 381.261719 111.910156 C 347 133.039062 352.234375 160.730469 356.605469 172.613281 C 358.699219 163.441406 364.21875 147.28125 377.832031 141.289062 C 383.839844 138.644531 391.203125 137.035156 399.007812 135.339844 C 412.617188 132.371094 428.042969 129.007812 437.898438 119.160156 C 438.683594 118.371094 439.949219 118.371094 440.738281 119.160156 C 441.523438 119.941406 441.523438 121.21875 440.738281 122 C 430.046875 132.683594 414.015625 136.183594 399.867188 139.261719 C 392.265625 140.921875 385.085938 142.484375 379.453125 144.964844 C 362.511719 152.421875 359.46875 179.320312 359.445312 179.589844 C 359.351562 180.457031 358.710938 181.164062 357.855469 181.339844 C 357.71875 181.371094 357.582031 181.386719 357.441406 181.386719 " fill-opacity="1" fill-rule="nonzero"/><path fill="#000000" d="M 384.515625 111.714844 C 369.257812 111.714844 356.820312 106.636719 356.605469 106.546875 C 355.644531 106.152344 355.152344 105.089844 355.460938 104.101562 C 355.769531 103.109375 356.789062 102.503906 357.796875 102.730469 C 357.988281 102.773438 377.09375 106.597656 394.773438 90.640625 C 395.597656 89.894531 396.867188 89.957031 397.609375 90.78125 C 398.347656 91.605469 398.289062 92.882812 397.464844 93.621094 C 388.371094 101.828125 379.03125 105.230469 371.605469 106.523438 C 384.378906 108.824219 403.6875 109.105469 417.847656 95.082031 C 418.632812 94.304688 419.910156 94.3125 420.6875 95.097656 C 421.46875 95.882812 421.457031 97.15625 420.675781 97.9375 C 409.835938 108.671875 396.328125 111.714844 384.515625 111.714844 " fill-opacity="1" fill-rule="nonzero"/><path fill="#000000" d="M 423.152344 251.953125 L 399.171875 259.28125 C 399.171875 259.28125 389.519531 256.113281 379.355469 248.621094 C 369.199219 241.125 354.714844 223.8125 354.714844 223.8125 C 354.714844 223.8125 368.03125 260.449219 393.515625 270.769531 C 409.378906 277.199219 423.152344 251.953125 423.152344 251.953125 " fill-opacity="1" fill-rule="evenodd"/><path fill="#000000" d="M 221.152344 587.792969 C 211.742188 587.792969 204.03125 586.628906 199.332031 583.757812 C 176.015625 569.515625 177.527344 514.9375 178.863281 466.792969 C 179.171875 455.667969 179.460938 445.179688 179.460938 435.390625 C 179.460938 369.179688 184.289062 290.054688 221.941406 265.65625 C 239.480469 254.292969 263.960938 250.054688 283.640625 246.652344 C 299.792969 243.859375 313.742188 241.445312 318.402344 236.246094 C 325.640625 228.167969 326.140625 190.363281 325.71875 176.476562 C 325.6875 175.371094 326.558594 174.445312 327.667969 174.410156 C 328.808594 174.367188 329.703125 175.246094 329.738281 176.355469 C 329.894531 181.628906 331.019531 228.199219 321.394531 238.925781 C 315.796875 245.167969 301.910156 247.570312 284.324219 250.613281 C 265.011719 253.949219 240.972656 258.113281 224.121094 269.027344 C 183.480469 295.367188 183.480469 397.09375 183.480469 435.390625 C 183.480469 445.238281 183.183594 455.757812 182.875 466.90625 C 181.570312 513.964844 180.09375 567.304688 201.421875 580.320312 C 223.167969 593.601562 322.84375 566.234375 329.519531 562.164062 C 332.15625 560.433594 330.976562 556.589844 330.042969 554.449219 C 329.589844 553.4375 330.054688 552.25 331.074219 551.800781 C 332.082031 551.355469 333.273438 551.820312 333.71875 552.828125 C 336.183594 558.449219 335.453125 563.070312 331.714844 565.53125 C 328.515625 567.636719 260.226562 587.792969 221.152344 587.792969 " fill-opacity="1" fill-rule="nonzero"/><path fill="#000000" d="M 330.609375 565.863281 C 330.273438 565.863281 329.933594 565.777344 329.621094 565.605469 C 316.191406 557.984375 311.808594 525.878906 312.980469 505.523438 C 313.460938 497.203125 315.28125 482.8125 322.101562 479.925781 C 323.914062 479.148438 326.851562 478.886719 330.480469 482.023438 C 331.316406 482.753906 331.410156 484.023438 330.6875 484.859375 C 329.964844 485.695312 328.695312 485.789062 327.851562 485.066406 C 326.199219 483.632812 324.789062 483.144531 323.667969 483.625 C 321.117188 484.707031 317.832031 491.148438 316.992188 505.753906 C 315.691406 528.226562 321.253906 556.242188 331.601562 562.105469 C 332.566406 562.664062 332.90625 563.878906 332.359375 564.84375 C 331.992188 565.503906 331.308594 565.863281 330.609375 565.863281 " fill-opacity="1" fill-rule="nonzero"/><path fill="#000000" d="M 323.976562 557.492188 C 323.066406 557.492188 322.238281 556.863281 322.023438 555.949219 C 321.769531 554.867188 322.445312 553.78125 323.523438 553.53125 C 338.78125 549.984375 368.636719 542.917969 372.449219 541.535156 C 376.527344 540.054688 376.636719 531.242188 376.355469 528.265625 C 376.25 527.164062 377.054688 526.1875 378.160156 526.074219 C 379.269531 525.96875 380.246094 526.785156 380.351562 527.882812 C 380.496094 529.371094 381.539062 542.515625 373.820312 545.308594 C 368.832031 547.117188 326.246094 557.03125 324.4375 557.445312 C 324.285156 557.480469 324.128906 557.492188 323.976562 557.492188 " fill-opacity="1" fill-rule="nonzero"/><path fill="#000000" d="M 373.136719 545.425781 C 372.492188 545.425781 371.863281 545.128906 371.472656 544.554688 C 364.207031 533.90625 361.90625 491.707031 365.210938 478.105469 C 365.992188 474.878906 367.058594 472.996094 368.566406 472.175781 C 369.96875 471.410156 371.433594 471.28125 372.8125 471.785156 C 375.5625 472.804688 376.882812 476.058594 377.027344 476.421875 C 377.425781 477.460938 376.910156 478.621094 375.875 479.023438 C 374.84375 479.410156 373.683594 478.90625 373.28125 477.867188 C 372.972656 477.097656 372.171875 475.828125 371.417969 475.554688 C 371.300781 475.507812 371.027344 475.414062 370.480469 475.710938 C 365.578125 479.109375 367.285156 531.269531 374.796875 542.289062 C 375.417969 543.210938 375.183594 544.460938 374.261719 545.082031 C 373.917969 545.3125 373.527344 545.425781 373.136719 545.425781 " fill-opacity="1" fill-rule="nonzero"/><path fill="#000000" d="M 319.054688 488.910156 C 318.160156 488.910156 317.339844 488.296875 317.109375 487.398438 C 316.835938 486.324219 317.480469 485.226562 318.554688 484.949219 L 369.023438 472 C 370.09375 471.726562 371.191406 472.371094 371.472656 473.441406 C 371.742188 474.511719 371.097656 475.609375 370.023438 475.894531 L 319.550781 488.835938 C 319.386719 488.886719 319.21875 488.910156 319.054688 488.910156 " fill-opacity="1" fill-rule="nonzero"/><path fill="#000000" d="M 375.152344 479.148438 C 374.347656 479.148438 373.585938 478.667969 373.28125 477.867188 C 372.972656 477.105469 372.171875 475.828125 371.417969 475.554688 C 371.300781 475.507812 371.027344 475.414062 370.480469 475.710938 C 369.496094 476.230469 368.285156 475.875 367.757812 474.902344 C 367.226562 473.917969 367.59375 472.699219 368.566406 472.175781 C 369.96875 471.410156 371.441406 471.28125 372.8125 471.785156 C 375.5625 472.804688 376.882812 476.058594 377.027344 476.421875 C 377.425781 477.460938 376.910156 478.621094 375.875 479.023438 C 375.640625 479.109375 375.390625 479.148438 375.152344 479.148438 " fill-opacity="1" fill-rule="nonzero"/><path fill="#000000" d="M 236.390625 493.242188 C 235.375 493.242188 234.503906 492.472656 234.390625 491.441406 C 234.277344 490.332031 235.085938 489.347656 236.1875 489.234375 C 236.871094 489.164062 304.507812 482.214844 323.007812 479.457031 C 324.105469 479.292969 325.125 480.050781 325.292969 481.140625 C 325.453125 482.238281 324.699219 483.257812 323.597656 483.425781 C 305.011719 486.207031 237.28125 493.167969 236.597656 493.230469 C 236.527344 493.230469 236.460938 493.242188 236.390625 493.242188 " fill-opacity="1" fill-rule="nonzero"/><path fill="#000000" d="M 261.3125 489.070312 C 260.515625 489.070312 259.765625 488.59375 259.445312 487.800781 C 258.796875 486.191406 243.714844 447.589844 261.832031 389.765625 C 267.773438 370.796875 254.917969 334.664062 254.789062 334.296875 C 254.414062 333.261719 254.957031 332.105469 256 331.730469 C 257.042969 331.355469 258.191406 331.894531 258.566406 332.941406 C 259.125 334.476562 272.015625 370.710938 265.671875 390.96875 C 248.007812 447.328125 263.019531 485.921875 263.171875 486.300781 C 263.582031 487.332031 263.089844 488.503906 262.058594 488.921875 C 261.816406 489.023438 261.5625 489.070312 261.3125 489.070312 " fill-opacity="1" fill-rule="nonzero"/><path fill="#000000" d="M 376.207031 329.238281 C 376.171875 329.238281 376.136719 329.238281 376.097656 329.238281 C 323.511719 329.128906 299.582031 251.691406 298.585938 248.394531 C 298.269531 247.332031 298.871094 246.210938 299.929688 245.890625 C 300.992188 245.578125 302.113281 246.175781 302.433594 247.230469 C 302.664062 248.015625 326.507812 325.117188 376.109375 325.226562 C 376.136719 325.226562 376.171875 325.226562 376.207031 325.226562 C 420.871094 325.226562 430.234375 262.476562 430.320312 261.84375 C 430.476562 260.746094 431.476562 259.980469 432.585938 260.132812 C 433.691406 260.289062 434.453125 261.300781 434.300781 262.398438 C 434.207031 263.070312 424.355469 329.238281 376.207031 329.238281 " fill-opacity="1" fill-rule="nonzero"/><path fill="#000000" d="M 578.027344 533.792969 C 569.566406 533.792969 560.757812 530.941406 556.414062 526.5 C 553.75 523.773438 553.539062 521.234375 553.828125 519.585938 C 555.371094 510.925781 575.921875 512.484375 580.035156 512.894531 C 581.140625 513 581.945312 513.984375 581.832031 515.085938 C 581.726562 516.183594 580.742188 516.984375 579.644531 516.890625 C 570.882812 516.035156 558.410156 516.742188 557.78125 520.292969 C 557.550781 521.589844 558.476562 522.859375 559.28125 523.691406 C 563.101562 527.589844 573.097656 530.910156 582.640625 529.429688 C 588.175781 528.582031 591.917969 526.0625 592.417969 522.878906 C 592.914062 519.644531 590.097656 516.101562 585.054688 513.605469 C 584.054688 513.105469 583.652344 511.902344 584.144531 510.914062 C 584.636719 509.917969 585.835938 509.5 586.835938 510 C 593.601562 513.347656 597.179688 518.394531 596.382812 523.496094 C 595.605469 528.558594 590.691406 532.25 583.25 533.40625 C 581.554688 533.664062 579.792969 533.792969 578.027344 533.792969 " fill-opacity="1" fill-rule="nonzero"/><path fill="#000000" d="M 495.042969 553.347656 C 494.714844 553.347656 494.382812 553.265625 494.082031 553.105469 C 486.46875 548.972656 485.242188 543.660156 486.492188 540.363281 C 487.738281 537.109375 492.117188 534 500.34375 535.941406 C 507.296875 537.601562 524.179688 541.644531 535.753906 544.417969 C 531.449219 541.625 526.425781 538.269531 521.992188 535.03125 C 515.949219 530.640625 515.511719 525.871094 517.113281 522.878906 C 519.003906 519.332031 524.394531 517.050781 532.167969 519.90625 C 542.714844 523.796875 559.046875 532.941406 559.734375 533.324219 C 560.699219 533.871094 561.042969 535.085938 560.503906 536.0625 C 559.964844 537.023438 558.738281 537.375 557.765625 536.828125 C 557.605469 536.734375 541.027344 527.453125 530.78125 523.683594 C 525.550781 521.757812 521.726562 522.765625 520.65625 524.761719 C 519.644531 526.65625 521.097656 529.410156 524.351562 531.789062 C 534.585938 539.238281 548.015625 547.414062 548.148438 547.488281 C 548.996094 548.007812 549.34375 549.054688 548.964844 549.980469 C 548.585938 550.894531 547.609375 551.398438 546.640625 551.167969 C 546.640625 551.167969 510.484375 542.480469 499.417969 539.859375 C 494.113281 538.601562 490.9375 539.976562 490.246094 541.796875 C 489.539062 543.652344 491.035156 546.875 495.996094 549.570312 C 496.976562 550.097656 497.335938 551.320312 496.804688 552.296875 C 496.441406 552.960938 495.746094 553.347656 495.042969 553.347656 " fill-opacity="1" fill-rule="nonzero"/><path fill="#000000" d="M 528.277344 584.617188 C 515.910156 584.617188 482.007812 565.285156 477.242188 560.96875 C 470.8125 555.132812 472.308594 550.808594 473.246094 549.214844 C 475.433594 545.496094 481.421875 544.1875 487.160156 546.148438 C 494.921875 548.800781 526.546875 561.28125 527.886719 561.808594 C 528.921875 562.21875 529.429688 563.378906 529.019531 564.414062 C 528.609375 565.449219 527.441406 565.960938 526.410156 565.542969 C 526.082031 565.414062 493.542969 552.566406 485.863281 549.945312 C 481.6875 548.527344 477.757812 549.46875 476.703125 551.261719 C 475.789062 552.808594 477 555.324219 479.941406 557.984375 C 484.730469 562.335938 519.6875 581.765625 528.949219 580.570312 C 535.707031 579.757812 535.453125 576.796875 535.121094 573.058594 C 535.0625 572.34375 535.007812 571.675781 535.007812 571.082031 C 535.007812 569.902344 535.375 568.988281 536.097656 568.34375 C 537.300781 567.289062 538.890625 567.484375 540.414062 567.683594 C 542.195312 567.910156 544.03125 568.140625 545.714844 566.960938 C 550.246094 563.773438 550.324219 560.171875 550.382812 557.546875 C 550.40625 556.34375 550.429688 555.285156 550.941406 554.421875 C 552.578125 551.585938 554.628906 551.367188 556.28125 551.191406 C 557.699219 551.042969 559.171875 550.886719 561.386719 549.136719 C 565.984375 545.558594 563.808594 536.941406 563.785156 536.863281 C 563.492188 535.792969 564.128906 534.6875 565.195312 534.398438 C 566.273438 534.121094 567.371094 534.742188 567.667969 535.808594 C 567.785156 536.265625 570.601562 547.039062 563.867188 552.304688 C 560.734375 554.757812 558.3125 555.019531 556.710938 555.191406 C 555.316406 555.335938 555.03125 555.371094 554.414062 556.429688 C 554.425781 556.492188 554.410156 557.15625 554.398438 557.640625 C 554.335938 560.523438 554.21875 565.894531 548.027344 570.246094 C 545.074219 572.320312 541.96875 571.929688 539.910156 571.667969 C 539.636719 571.632812 539.324219 571.59375 539.046875 571.574219 C 539.0625 571.953125 539.09375 572.328125 539.128906 572.714844 C 539.449219 576.394531 540.042969 583.273438 529.429688 584.558594 C 529.070312 584.605469 528.6875 584.617188 528.277344 584.617188 " fill-opacity="1" fill-rule="nonzero"/><path fill="#000000" d="M 474.390625 557.492188 C 474.335938 557.492188 474.277344 557.492188 474.21875 557.492188 L 418.890625 552.730469 C 418.054688 552.660156 417.355469 552.074219 417.128906 551.265625 C 416.902344 550.449219 417.207031 549.589844 417.894531 549.101562 C 431.3125 539.425781 549.214844 454.550781 555.050781 452.421875 C 561.875 449.941406 644.898438 468.957031 652.953125 472.046875 C 653.988281 472.449219 654.503906 473.613281 654.109375 474.636719 C 653.710938 475.675781 652.542969 476.195312 651.511719 475.800781 C 640.457031 471.558594 561.945312 454.757812 556.390625 456.214844 C 551.925781 458.046875 476.785156 511.648438 424.636719 549.199219 L 474.566406 553.484375 C 475.664062 553.585938 476.488281 554.558594 476.394531 555.65625 C 476.300781 556.703125 475.425781 557.492188 474.390625 557.492188 " fill-opacity="1" fill-rule="nonzero"/><g clip-path="url(#8057c65019)"><path fill="#000000" d="M 579.835938 516.902344 C 579.125 516.902344 578.433594 516.515625 578.074219 515.851562 C 577.546875 514.875 577.902344 513.65625 578.878906 513.128906 L 650.949219 473.902344 C 655.988281 465.371094 685.84375 403.265625 690.621094 393.324219 C 689.953125 392.8125 689.085938 392.316406 688.304688 392.378906 C 687.664062 392.433594 687.027344 392.949219 686.425781 393.917969 L 651.246094 465.507812 C 650.753906 466.503906 649.558594 466.910156 648.558594 466.417969 C 647.5625 465.925781 647.148438 464.722656 647.640625 463.726562 L 682.917969 391.972656 C 684.65625 389.160156 686.632812 388.484375 687.996094 388.371094 C 691.5 388.09375 694.28125 391.1875 694.589844 391.539062 C 695.109375 392.144531 695.230469 393.003906 694.886719 393.726562 C 693.402344 396.804688 658.6875 469.195312 654.074219 476.488281 C 653.894531 476.785156 653.640625 477.019531 653.34375 477.175781 L 580.800781 516.652344 C 580.492188 516.816406 580.167969 516.902344 579.835938 516.902344 " fill-opacity="1" fill-rule="nonzero"/></g><path fill="#000000" d="M 642.964844 457.871094 C 642.835938 457.871094 642.707031 457.851562 642.574219 457.828125 C 641.484375 457.609375 640.777344 456.554688 640.996094 455.46875 C 641.1875 454.511719 645.742188 431.992188 652.589844 418.9375 C 656.386719 411.703125 662.011719 403.964844 666.714844 398.011719 L 599.710938 441.207031 C 598.78125 441.808594 597.535156 441.539062 596.9375 440.601562 C 596.332031 439.679688 596.597656 438.433594 597.527344 437.835938 L 675.691406 387.449219 C 676.539062 386.894531 677.660156 387.066406 678.304688 387.832031 C 678.964844 388.605469 678.941406 389.734375 678.269531 390.484375 C 678.117188 390.648438 663.386719 406.996094 656.148438 420.792969 C 649.566406 433.351562 644.984375 456.023438 644.941406 456.257812 C 644.746094 457.210938 643.910156 457.871094 642.964844 457.871094 " fill-opacity="1" fill-rule="nonzero"/><path fill="#000000" d="M 390.871094 699.410156 C 316.730469 699.421875 246.429688 651.253906 243.898438 644.316406 C 241.632812 638.09375 257.488281 588.949219 260.855469 581.765625 C 261.324219 580.757812 262.523438 580.332031 263.523438 580.800781 C 264.53125 581.269531 264.964844 582.464844 264.488281 583.46875 C 260.136719 592.753906 246.476562 638.25 247.6875 642.96875 C 250.679688 648.019531 318.507812 695.390625 390.902344 695.394531 C 392.617188 695.394531 394.316406 695.367188 396.03125 695.3125 C 469.496094 693.007812 521.613281 654.222656 523.605469 647.25 C 525.015625 642.300781 516.214844 602.441406 510.339844 578.480469 C 510.078125 577.402344 510.730469 576.316406 511.816406 576.058594 C 512.890625 575.789062 513.976562 576.453125 514.242188 577.527344 C 516.828125 588.046875 529.59375 640.917969 527.464844 648.347656 C 525.269531 656.050781 472.960938 696.914062 396.15625 699.332031 C 394.394531 699.390625 392.628906 699.410156 390.871094 699.410156 " fill-opacity="1" fill-rule="nonzero"/><path fill="#000000" d="M 228.273438 753.039062 C 228.253906 753.039062 228.238281 753.035156 228.21875 753.035156 C 227.109375 753.011719 226.234375 752.085938 226.269531 750.976562 C 226.28125 750.367188 228.191406 689.808594 249.125 647.570312 C 249.617188 646.578125 250.824219 646.183594 251.820312 646.667969 C 252.808594 647.167969 253.21875 648.363281 252.726562 649.367188 C 232.1875 690.792969 230.300781 750.484375 230.28125 751.089844 C 230.253906 752.175781 229.359375 753.039062 228.273438 753.039062 " fill-opacity="1" fill-rule="nonzero"/><path fill="#000000" d="M 532.96875 758.363281 C 532.925781 758.363281 532.882812 758.363281 532.84375 758.363281 C 531.734375 758.292969 530.890625 757.332031 530.964844 756.230469 C 530.988281 755.804688 533.449219 713.027344 519.1875 655.308594 C 518.921875 654.222656 519.578125 653.144531 520.65625 652.875 C 521.730469 652.609375 522.824219 653.269531 523.089844 654.339844 C 537.503906 712.703125 535 756.050781 534.972656 756.472656 C 534.90625 757.546875 534.023438 758.363281 532.96875 758.363281 " fill-opacity="1" fill-rule="nonzero"/><path fill="#000000" d="M 369.527344 533.433594 C 368.691406 533.433594 367.914062 532.902344 367.621094 532.066406 C 367.261719 531.03125 367.816406 529.886719 368.867188 529.519531 C 369.304688 529.371094 413.125 514.191406 425.808594 506.757812 C 437.199219 500.066406 438.515625 490.265625 439.296875 484.421875 C 439.507812 482.886719 439.667969 481.664062 440 480.761719 C 443.003906 472.429688 463.828125 462.808594 469.699219 462.613281 C 469.71875 462.613281 469.746094 462.613281 469.769531 462.613281 C 470.84375 462.613281 471.734375 463.460938 471.773438 464.550781 C 471.808594 465.65625 470.945312 466.589844 469.835938 466.625 C 465.175781 466.78125 446.089844 475.722656 443.777344 482.121094 C 443.59375 482.628906 443.445312 483.761719 443.277344 484.949219 C 442.453125 491.101562 440.917969 502.539062 427.84375 510.210938 C 414.816406 517.855469 372 532.691406 370.179688 533.320312 C 369.964844 533.394531 369.746094 533.433594 369.527344 533.433594 " fill-opacity="1" fill-rule="nonzero"/><path fill="#000000" d="M 461.96875 477.554688 C 461.03125 477.554688 460.140625 477.496094 459.324219 477.382812 C 455.023438 476.753906 453.519531 474.632812 453.003906 472.953125 C 452.683594 471.890625 453.273438 470.765625 454.335938 470.445312 C 455.410156 470.132812 456.523438 470.71875 456.851562 471.78125 C 457.164062 472.804688 458.675781 473.230469 459.890625 473.410156 C 466.238281 474.316406 476.902344 470.550781 478.539062 468.066406 C 481.589844 463.460938 479.351562 457.585938 478.25 455.273438 C 475.855469 450.25 471.828125 446.640625 469.570312 446.425781 C 460.195312 445.496094 444.796875 452.828125 444.640625 452.902344 C 443.628906 453.386719 442.441406 452.960938 441.957031 451.957031 C 441.480469 450.96875 441.902344 449.765625 442.898438 449.277344 C 443.574219 448.957031 459.511719 441.410156 469.960938 442.429688 C 473.980469 442.820312 478.992188 447.492188 481.878906 453.546875 C 484.824219 459.726562 484.835938 465.832031 481.898438 470.292969 C 479.414062 474.050781 469.324219 477.554688 461.96875 477.554688 " fill-opacity="1" fill-rule="nonzero"/><path fill="#000000" d="M 481.394531 459.671875 C 480.449219 459.671875 479.609375 459 479.417969 458.046875 C 479.210938 456.960938 479.921875 455.90625 481 455.691406 C 481.351562 455.617188 488.667969 454.058594 488.667969 447.328125 C 488.667969 439.214844 482.144531 425.476562 476.28125 423.871094 C 464.785156 420.734375 439.679688 433.144531 439.429688 433.261719 C 438.433594 433.761719 437.230469 433.359375 436.730469 432.367188 C 436.238281 431.371094 436.636719 430.167969 437.632812 429.667969 C 438.71875 429.128906 464.367188 416.453125 477.34375 420 C 485.660156 422.277344 492.683594 438.398438 492.683594 447.328125 C 492.683594 455.390625 485.550781 458.894531 481.777344 459.636719 C 481.648438 459.652344 481.515625 459.671875 481.394531 459.671875 " fill-opacity="1" fill-rule="nonzero"/><path fill="#000000" d="M 490.679688 450.179688 C 489.929688 450.179688 489.214844 449.757812 488.863281 449.035156 C 488.390625 448.03125 488.808594 446.839844 489.804688 446.355469 C 498.292969 442.28125 495.992188 433.148438 492.242188 423.886719 C 491.964844 423.199219 491.714844 422.589844 491.527344 422.082031 C 487.566406 411.441406 473.695312 404.867188 469.148438 403.410156 C 465.691406 402.289062 449.609375 407.785156 439.296875 412.042969 C 438.265625 412.464844 437.097656 411.972656 436.671875 410.949219 C 436.25 409.925781 436.742188 408.75 437.761719 408.332031 C 442.140625 406.523438 464.257812 397.621094 470.382812 399.578125 C 475.769531 401.316406 490.75 408.484375 495.292969 420.675781 C 495.476562 421.148438 495.707031 421.730469 495.972656 422.382812 C 498.550781 428.761719 504.601562 443.710938 491.542969 449.984375 C 491.265625 450.113281 490.96875 450.179688 490.679688 450.179688 " fill-opacity="1" fill-rule="nonzero"/><path fill="#000000" d="M 367.695312 482.136719 C 366.894531 482.136719 366.132812 481.644531 365.824219 480.855469 C 365.417969 479.824219 365.921875 478.664062 366.957031 478.253906 C 367.214844 478.152344 392.652344 468.140625 398.152344 464.925781 C 400.90625 463.152344 404.746094 443.578125 407.035156 431.886719 C 408.925781 422.246094 410.5625 413.910156 412 410.828125 C 416.789062 400.59375 451.039062 378.175781 463.734375 379.109375 C 472.054688 379.710938 497.285156 400.398438 500.972656 405.242188 C 503.914062 409.101562 507.820312 421.195312 505.664062 428.28125 C 504.628906 431.65625 502.539062 433 500.960938 433.542969 C 499.90625 433.902344 498.773438 433.339844 498.410156 432.289062 C 498.054688 431.242188 498.613281 430.097656 499.667969 429.746094 C 500.039062 429.617188 501.171875 429.226562 501.820312 427.121094 C 503.496094 421.589844 500.183594 410.828125 497.777344 407.671875 C 494.234375 403.023438 470.085938 383.597656 463.4375 383.117188 C 452.46875 382.367188 419.839844 403.5625 415.640625 412.539062 C 414.414062 415.160156 412.746094 423.664062 410.980469 432.664062 C 406.929688 453.332031 404.179688 466.050781 400.1875 468.382812 C 394.414062 471.765625 369.484375 481.582031 368.429688 481.996094 C 368.1875 482.089844 367.9375 482.136719 367.695312 482.136719 " fill-opacity="1" fill-rule="nonzero"/><path fill="#000000" d="M 554.34375 533.804688 C 553.632812 533.804688 552.949219 533.433594 552.582031 532.773438 C 552.035156 531.808594 552.386719 530.578125 553.359375 530.039062 L 560.625 525.980469 C 561.589844 525.445312 562.816406 525.78125 563.355469 526.75 C 563.894531 527.714844 563.550781 528.949219 562.578125 529.488281 L 555.316406 533.542969 C 555 533.722656 554.675781 533.804688 554.34375 533.804688 " fill-opacity="1" fill-rule="nonzero"/><path fill="#000000" d="M 684.070312 396.175781 C 683.679688 396.175781 683.289062 396.058594 682.9375 395.820312 L 675.636719 390.785156 C 674.726562 390.15625 674.492188 388.90625 675.128906 387.992188 C 675.75 387.078125 677.003906 386.847656 677.921875 387.484375 L 685.21875 392.511719 C 686.128906 393.140625 686.359375 394.390625 685.730469 395.304688 C 685.339844 395.871094 684.710938 396.175781 684.070312 396.175781 " fill-opacity="1" fill-rule="nonzero"/><path fill="#000000" d="M 419.054688 552.738281 C 418.628906 552.738281 418.203125 552.601562 417.832031 552.316406 C 416.023438 550.921875 413.148438 547.132812 415.175781 542.816406 C 416.75 539.492188 476.910156 496.070312 483.765625 491.132812 C 514.519531 468.957031 551.953125 442.519531 555.648438 442.359375 C 555.691406 442.359375 555.726562 442.359375 555.765625 442.359375 C 562.277344 442.359375 640.902344 460.574219 649.890625 462.660156 C 650.976562 462.910156 651.652344 463.996094 651.398438 465.074219 C 651.148438 466.152344 650.0625 466.816406 648.992188 466.578125 C 614.054688 458.460938 560.855469 446.484375 555.957031 446.371094 C 548.722656 448.921875 425.15625 537.464844 418.746094 544.683594 C 417.773438 547.050781 420.039062 548.9375 420.300781 549.136719 C 421.167969 549.832031 421.320312 551.09375 420.636719 551.960938 C 420.242188 552.46875 419.652344 552.738281 419.054688 552.738281 " fill-opacity="1" fill-rule="nonzero"/><path fill="#000000" d="M 552.675781 437.394531 C 551.621094 437.394531 550.738281 436.578125 550.667969 435.511719 C 550.601562 434.429688 543.640625 326.890625 518.886719 301.628906 C 494.046875 276.285156 432.546875 264.214844 431.929688 264.09375 C 424.660156 262.511719 419.113281 258.628906 418.882812 258.460938 C 417.976562 257.816406 417.769531 256.566406 418.402344 255.664062 C 419.042969 254.75 420.300781 254.542969 421.203125 255.175781 C 421.253906 255.21875 426.34375 258.765625 432.734375 260.15625 C 435.261719 260.644531 496.03125 272.574219 521.75 298.8125 C 547.546875 325.136719 554.402344 430.777344 554.683594 435.261719 C 554.753906 436.371094 553.90625 437.324219 552.796875 437.394531 C 552.761719 437.394531 552.714844 437.394531 552.675781 437.394531 " fill-opacity="1" fill-rule="nonzero"/><path fill="#000000" d="M 413.203125 541.886719 C 412.457031 541.886719 411.738281 541.472656 411.394531 540.753906 C 410.640625 539.199219 408.941406 535.339844 409.402344 533.101562 C 409.605469 532.121094 410.136719 529.546875 479.40625 481.542969 C 495.574219 470.339844 548.65625 433.726562 552.492188 433.394531 C 570.027344 431.847656 622.859375 438.09375 644.183594 454.257812 C 645.066406 454.929688 645.238281 456.183594 644.566406 457.070312 C 643.898438 457.957031 642.632812 458.128906 641.757812 457.460938 C 621.265625 441.929688 570.242188 435.914062 553.003906 437.378906 C 544.898438 440.347656 420.773438 526.445312 413.339844 534.207031 C 413.433594 535.121094 414.152344 537.234375 415.011719 539.003906 C 415.492188 539.996094 415.078125 541.199219 414.082031 541.683594 C 413.796875 541.816406 413.5 541.886719 413.203125 541.886719 " fill-opacity="1" fill-rule="nonzero"/><path fill="#efefef" d="M 532.042969 225.09375 C 525.984375 225.09375 521.074219 232.351562 521.074219 241.304688 C 521.074219 232.351562 516.167969 225.09375 510.109375 225.09375 C 516.167969 225.09375 521.074219 217.835938 521.074219 208.882812 C 521.074219 217.835938 525.984375 225.09375 532.042969 225.09375 " fill-opacity="1" fill-rule="nonzero"/><path fill="#efefef" d="M 273.492188 193.179688 C 269.027344 193.179688 265.410156 198.527344 265.410156 205.121094 C 265.410156 198.527344 261.785156 193.179688 257.328125 193.179688 C 261.785156 193.179688 265.410156 187.828125 265.410156 181.234375 C 265.410156 187.828125 269.027344 193.179688 273.492188 193.179688 " fill-opacity="1" fill-rule="nonzero"/><path fill="#efefef" d="M 230.507812 97.191406 C 224.453125 97.191406 219.542969 104.449219 219.542969 113.402344 C 219.542969 104.449219 214.632812 97.191406 208.574219 97.191406 C 214.632812 97.191406 219.542969 89.933594 219.542969 80.980469 C 219.542969 89.933594 224.453125 97.191406 230.507812 97.191406 " fill-opacity="1" fill-rule="nonzero"/><g fill="#000000" fill-opacity="1"><g transform="translate(510.820299, 276.890632)"><g><path d="M 2.972656 0 L 6.664062 0 L 6.664062 -11.644531 L 10.078125 -11.644531 L 10.078125 -14.632812 L 6.664062 -14.632812 L 6.664062 -16.230469 C 6.664062 -17.371094 7.292969 -17.828125 8.011719 -17.828125 C 8.394531 -17.828125 8.816406 -17.664062 9.15625 -17.460938 L 10.328125 -20.40625 C 9.535156 -20.757812 8.640625 -21.003906 7.675781 -21.003906 C 5.214844 -21.003906 3.003906 -19.4375 3.003906 -16.597656 L 3.003906 -14.632812 L 0.292969 -14.632812 L 0.292969 -11.644531 L 2.972656 -11.644531 Z M 2.972656 0 "/></g></g><g transform="translate(520.898423, 276.890632)"><g><path d="M 6.121094 0.292969 C 7.867188 0.292969 9.417969 -0.261719 10.679688 -2.09375 L 10.914062 0 L 13.855469 0 L 13.855469 -8.875 C 13.855469 -12.449219 11.511719 -14.941406 7.527344 -14.941406 C 4.644531 -14.941406 2.78125 -13.652344 1.375 -11.734375 L 4.117188 -9.753906 C 4.746094 -10.824219 5.875 -11.820312 7.558594 -11.820312 C 9.449219 -11.820312 10.445312 -10.589844 10.445312 -8.730469 L 6.636719 -8.730469 C 3.355469 -8.730469 0.804688 -7.675781 0.804688 -4.496094 C 0.804688 -1.433594 3.121094 0.292969 6.121094 0.292969 Z M 6.636719 -2.722656 C 5.242188 -2.722656 4.46875 -3.414062 4.46875 -4.378906 C 4.46875 -5.300781 5.214844 -6.152344 6.839844 -6.152344 L 10.445312 -6.152344 C 10.386719 -4.320312 8.671875 -2.722656 6.636719 -2.722656 Z M 6.636719 -2.722656 "/></g></g></g><g fill="#000000" fill-opacity="1"><g transform="translate(536.440414, 276.890632)"><g><path d="M 7.324219 0.292969 C 8.335938 0.292969 9.417969 0.0585938 9.960938 -0.144531 L 9.960938 -3.382812 C 9.476562 -3.148438 8.671875 -2.855469 7.925781 -2.855469 C 6.988281 -2.855469 6.269531 -3.265625 6.269531 -4.671875 L 6.269531 -11.644531 L 9.960938 -11.644531 L 9.960938 -14.632812 L 6.269531 -14.632812 L 6.269531 -20.816406 L 2.78125 -18.265625 L 2.78125 -14.632812 L 0.367188 -14.632812 L 0.367188 -11.644531 L 2.722656 -11.644531 L 2.722656 -4.042969 C 2.722656 -1.375 4.4375 0.292969 7.324219 0.292969 Z M 7.324219 0.292969 "/></g></g></g><g fill="#000000" fill-opacity="1"><g transform="translate(547.485336, 276.890632)"><g><path d="M 2.035156 -17.402344 L 5.757812 -17.402344 L 5.757812 -20.699219 L 2.035156 -20.699219 Z M 2.125 0 L 5.667969 0 L 5.667969 -14.632812 L 2.125 -14.632812 Z M 2.125 0 "/></g></g><g transform="translate(555.278304, 276.890632)"><g><path d="M 2.125 0 L 5.726562 0 L 5.726562 -8.042969 C 5.726562 -9.988281 6.871094 -11.617188 8.816406 -11.617188 C 10.648438 -11.617188 11.132812 -10.164062 11.132812 -8.394531 L 11.132812 0 L 14.765625 0 L 14.765625 -8.042969 C 14.765625 -9.988281 15.894531 -11.617188 17.828125 -11.617188 C 19.671875 -11.617188 20.183594 -10.136719 20.183594 -8.335938 L 20.183594 0 L 23.816406 0 L 23.816406 -8.789062 C 23.816406 -11.878906 22.164062 -14.941406 18.414062 -14.941406 C 16.523438 -14.941406 14.707031 -14.164062 13.5625 -12.363281 C 12.597656 -14.105469 11.21875 -14.941406 9.449219 -14.941406 C 8.070312 -14.941406 6.695312 -14.429688 5.726562 -13.109375 L 5.726562 -14.632812 L 2.125 -14.632812 Z M 2.125 0 "/></g></g><g transform="translate(580.810529, 276.890632)"><g><path d="M 6.121094 0.292969 C 7.867188 0.292969 9.417969 -0.261719 10.679688 -2.09375 L 10.914062 0 L 13.855469 0 L 13.855469 -8.875 C 13.855469 -12.449219 11.511719 -14.941406 7.527344 -14.941406 C 4.644531 -14.941406 2.78125 -13.652344 1.375 -11.734375 L 4.117188 -9.753906 C 4.746094 -10.824219 5.875 -11.820312 7.558594 -11.820312 C 9.449219 -11.820312 10.445312 -10.589844 10.445312 -8.730469 L 6.636719 -8.730469 C 3.355469 -8.730469 0.804688 -7.675781 0.804688 -4.496094 C 0.804688 -1.433594 3.121094 0.292969 6.121094 0.292969 Z M 6.636719 -2.722656 C 5.242188 -2.722656 4.46875 -3.414062 4.46875 -4.378906 C 4.46875 -5.300781 5.214844 -6.152344 6.839844 -6.152344 L 10.445312 -6.152344 C 10.386719 -4.320312 8.671875 -2.722656 6.636719 -2.722656 Z M 6.636719 -2.722656 "/></g></g></g><g fill="#000000" fill-opacity="1"><g transform="translate(596.352521, 276.890632)"><g/></g></g><g fill="#000000" fill-opacity="1"><g transform="translate(603.559552, 276.890632)"><g><path d="M 7.324219 0.292969 C 8.335938 0.292969 9.417969 0.0585938 9.960938 -0.144531 L 9.960938 -3.382812 C 9.476562 -3.148438 8.671875 -2.855469 7.925781 -2.855469 C 6.988281 -2.855469 6.269531 -3.265625 6.269531 -4.671875 L 6.269531 -11.644531 L 9.960938 -11.644531 L 9.960938 -14.632812 L 6.269531 -14.632812 L 6.269531 -20.816406 L 2.78125 -18.265625 L 2.78125 -14.632812 L 0.367188 -14.632812 L 0.367188 -11.644531 L 2.722656 -11.644531 L 2.722656 -4.042969 C 2.722656 -1.375 4.4375 0.292969 7.324219 0.292969 Z M 7.324219 0.292969 "/></g></g></g><g fill="#000000" fill-opacity="1"><g transform="translate(614.604473, 276.890632)"><g><path d="M 6.121094 0.292969 C 7.867188 0.292969 9.417969 -0.261719 10.679688 -2.09375 L 10.914062 0 L 13.855469 0 L 13.855469 -8.875 C 13.855469 -12.449219 11.511719 -14.941406 7.527344 -14.941406 C 4.644531 -14.941406 2.78125 -13.652344 1.375 -11.734375 L 4.117188 -9.753906 C 4.746094 -10.824219 5.875 -11.820312 7.558594 -11.820312 C 9.449219 -11.820312 10.445312 -10.589844 10.445312 -8.730469 L 6.636719 -8.730469 C 3.355469 -8.730469 0.804688 -7.675781 0.804688 -4.496094 C 0.804688 -1.433594 3.121094 0.292969 6.121094 0.292969 Z M 6.636719 -2.722656 C 5.242188 -2.722656 4.46875 -3.414062 4.46875 -4.378906 C 4.46875 -5.300781 5.214844 -6.152344 6.839844 -6.152344 L 10.445312 -6.152344 C 10.386719 -4.320312 8.671875 -2.722656 6.636719 -2.722656 Z M 6.636719 -2.722656 "/></g></g><g transform="translate(630.146464, 276.890632)"><g><path d="M 2.152344 6.414062 L 5.785156 6.414062 L 5.785156 -1.464844 C 6.8125 -0.203125 8.421875 0.292969 9.960938 0.292969 C 14.003906 0.292969 16.230469 -3.265625 16.230469 -7.324219 C 16.230469 -11.394531 14.003906 -14.941406 9.902344 -14.941406 C 8.335938 -14.941406 6.8125 -14.429688 5.785156 -13.167969 L 5.785156 -14.632812 L 2.152344 -14.632812 Z M 9.023438 -3.003906 C 6.578125 -3.003906 5.464844 -4.863281 5.464844 -7.324219 C 5.464844 -9.785156 6.578125 -11.734375 9.023438 -11.734375 C 11.484375 -11.734375 12.597656 -9.785156 12.597656 -7.324219 C 12.597656 -4.863281 11.484375 -3.003906 9.023438 -3.003906 Z M 9.023438 -3.003906 "/></g></g><g transform="translate(647.299784, 276.890632)"><g><path d="M 2.035156 -17.402344 L 5.757812 -17.402344 L 5.757812 -20.699219 L 2.035156 -20.699219 Z M 2.125 0 L 5.667969 0 L 5.667969 -14.632812 L 2.125 -14.632812 Z M 2.125 0 "/></g></g><g transform="translate(655.092752, 276.890632)"><g><path d="M 6.121094 0.292969 C 7.867188 0.292969 9.417969 -0.261719 10.679688 -2.09375 L 10.914062 0 L 13.855469 0 L 13.855469 -8.875 C 13.855469 -12.449219 11.511719 -14.941406 7.527344 -14.941406 C 4.644531 -14.941406 2.78125 -13.652344 1.375 -11.734375 L 4.117188 -9.753906 C 4.746094 -10.824219 5.875 -11.820312 7.558594 -11.820312 C 9.449219 -11.820312 10.445312 -10.589844 10.445312 -8.730469 L 6.636719 -8.730469 C 3.355469 -8.730469 0.804688 -7.675781 0.804688 -4.496094 C 0.804688 -1.433594 3.121094 0.292969 6.121094 0.292969 Z M 6.636719 -2.722656 C 5.242188 -2.722656 4.46875 -3.414062 4.46875 -4.378906 C 4.46875 -5.300781 5.214844 -6.152344 6.839844 -6.152344 L 10.445312 -6.152344 C 10.386719 -4.320312 8.671875 -2.722656 6.636719 -2.722656 Z M 6.636719 -2.722656 "/></g></g></g></svg>